PathFileType	4	(X/Y/Z)	/Users/itak/Documents/Research/Walk-IL/dataset/trc/00428_00167.trc
DataRate	CameraRate	NumFrames	NumMarkers	Units	OrigDataRate	OrigDataStartFrame	OrigNumFrames
100.000000	100.000000	4	53	mm	100.000000	98	786
Frame#	Time	RPSI			LPSI			L3			STRN			T10			C7			CLAV			RBAK			LBAK			LSHO			LUPA			LAEL			LAOL			LWTS			LWPS			LFRA			LIFD			LHPS			LHTS			RSHO			RUPA			RAEL			RAOL			RWTS			RWPS			RFRA			RIFD			RHTS			RHPS			RBHD			LFHD			RFHD			LBHD			LHIP			RHIP			RASI			LASI			LKNE			LTHI			LANK			LTIP			LTOE			LMT1			LMT5			LHEE			RKNE			RTHI			RANK			RTIP			RTOE			RMT1			RMT5			RHEE			
		X1	Y1	Z1	X2	Y2	Z2	X3	Y3	Z3	X4	Y4	Z4	X5	Y5	Z5	X6	Y6	Z6	X7	Y7	Z7	X8	Y8	Z8	X9	Y9	Z9	X10	Y10	Z10	X11	Y11	Z11	X12	Y12	Z12	X13	Y13	Z13	X14	Y14	Z14	X15	Y15	Z15	X16	Y16	Z16	X17	Y17	Z17	X18	Y18	Z18	X19	Y19	Z19	X20	Y20	Z20	X21	Y21	Z21	X22	Y22	Z22	X23	Y23	Z23	X24	Y24	Z24	X25	Y25	Z25	X26	Y26	Z26	X27	Y27	Z27	X28	Y28	Z28	X29	Y29	Z29	X30	Y30	Z30	X31	Y31	Z31	X32	Y32	Z32	X33	Y33	Z33	X34	Y34	Z34	X35	Y35	Z35	X36	Y36	Z36	X37	Y37	Z37	X38	Y38	Z38	X39	Y39	Z39	X40	Y40	Z40	X41	Y41	Z41	X42	Y42	Z42	X43	Y43	Z43	X44	Y44	Z44	X45	Y45	Z45	X46	Y46	Z46	X47	Y47	Z47	X48	Y48	Z48	X49	Y49	Z49	X50	Y50	Z50	X51	Y51	Z51	X52	Y52	Z52	X53	Y53	Z53	

99	0.98	-1134.411499023438	974.0819091796875	-483.7156372070312	-1065.070434570312	971.2881469726562	-606.7811889648438	-1090.751831054688	1063.753051757812	-527.021484375	-848.6616821289062	1248.672485351562	-416.2173767089844	-1107.646850585938	1186.572387695312	-544.5634155273438	-1048.884399414062	1453.87939453125	-506.5531616210938	-876.6153564453125	1362.9912109375	-438.1180725097656	-1149.017944335938	1337.075439453125	-447.074462890625	-1033.326416015625	1405.766967773438	-610.8116455078125	-903.76953125	1420.107543945312	-632.6475219726562	-865.8682250976562	1303.359985351562	-725.6484985351562	-823.075439453125	1091.397583007812	-751.359375	-923.0225219726562	1069.126098632812	-730.138671875	-751.106201171875	896.98486328125	-673.4284057617188	-766.1557006835938	877.7275390625	-743.6668090820312	-792.4006958007812	1006.056335449219	-750.1309204101562	-730.3628540039062	729.0119018554688	-668.18896484375	-753.357666015625	797.2283935546875	-736.5224609375	-724.9395751953125	809.54638671875	-672.0379638671875	-1053.310546875	1422.046142578125	-329.9065856933594	-1102.962524414062	1362.848022460938	-267.7668762207031	-1136.955810546875	1080.448608398438	-207.1053466796875	-1165.976928710938	1060.054077148438	-265.2680358886719	-1021.063598632812	883.8396606445312	-186.6222534179688	-1105.376098632812	867.5316772460938	-166.4552307128906	-1136.861206054688	1022.6787109375	-193.6944885253906	-1019.793212890625	725.322998046875	-166.6226501464844	-1011.589721679688	785.6121215820312	-161.0860290527344	-1086.891479492188	782.5841674804688	-152.8681640625	-1019.602966308594	1645.900024414062	-404.47412109375	-824.641357421875	1666.905639648438	-471.6548461914062	-890.981689453125	1669.1572265625	-358.5072631835938	-943.0104370117188	1646.726684570312	-565.45849609375	-891.3098754882812	850.715087890625	-633.7943115234375	-1116.390991210938	870.005859375	-302.2821350097656	-990.0391235351562	902.6846313476562	-302.1702880859375	-845.4837036132812	887.2136840820312	-515.1539916992188	-954.97900390625	430.6944274902344	-584.9987182617188	-907.9865112304688	579.5396728515625	-597.9960327148438	-1040.025390625	35.56526565551758	-581.1119384765625	-966.7546997070312	279.7112121582031	-583.2213134765625	-893.26171875	41.6181640625	-397.3326721191406	-969.26171875	52.68558502197266	-418.6087646484375	-904.1201782226562	41.75844573974609	-512.6405029296875	-1113.10888671875	41.4562873840332	-570.8438110351562	-1104.468872070312	471.00146484375	-308.8016967773438	-1093.910888671875	732.673828125	-269.4068908691406	-1172.529907226562	46.17266845703125	-332.3747863769531	-1129.755615234375	326.24365234375	-299.3417358398438	-963.001708984375	47.51494216918945	-267.3910827636719	-1001.837463378906	55.80122375488281	-329.0422058105469	-1067.982299804688	48.88517761230469	-244.9102935791016	-1205.828125	37.37920379638672	-406.7392578125	
100	0.99	-1134.740600585938	974.1941528320312	-483.8913269042969	-1065.419555664062	971.375244140625	-606.9965209960938	-1090.996826171875	1063.847534179688	-527.2123413085938	-848.8782348632812	1248.600341796875	-416.1527709960938	-1107.75634765625	1186.684936523438	-544.7578735351562	-1048.7998046875	1453.961303710938	-506.7377624511719	-876.7469482421875	1362.929443359375	-437.9996337890625	-1149.088989257812	1337.245849609375	-447.3918151855469	-1033.144409179688	1405.845458984375	-610.9725341796875	-903.4540405273438	1420.062622070312	-632.586669921875	-865.5349731445312	1303.279174804688	-725.48828125	-822.8021240234375	1091.291015625	-751.0701904296875	-922.7760009765625	1068.988891601562	-730.0249633789062	-751.1116943359375	896.8073120117188	-673.01904296875	-766.088134765625	877.6004638671875	-743.3280639648438	-792.2228393554688	1005.917541503906	-749.7992553710938	-730.4973754882812	728.854736328125	-667.7463989257812	-753.344970703125	797.0975952148438	-736.1591186523438	-725.0247192382812	809.3126220703125	-671.5938110351562	-1053.498657226562	1422.17626953125	-330.0898742675781	-1103.357666015625	1363.02392578125	-268.0437622070312	-1137.56494140625	1080.686645507812	-207.2903289794922	-1166.449462890625	1060.134521484375	-265.4690856933594	-1021.055786132812	884.529296875	-186.3377838134766	-1105.328491210938	867.9293823242188	-166.2639923095703	-1137.30810546875	1022.915405273438	-193.8040008544922	-1019.172424316406	726.0807495117188	-166.0146026611328	-1011.183776855469	786.4005126953125	-160.6015319824219	-1086.509399414062	783.077880859375	-152.4649810791016	-1019.607788085938	1645.875244140625	-404.6131591796875	-824.73388671875	1667.006103515625	-471.5856323242188	-891.1882934570312	1669.267211914062	-358.5411376953125	-942.9298706054688	1646.728515625	-565.5223999023438	-891.6436157226562	850.718017578125	-633.9408569335938	-1116.736938476562	870.089111328125	-302.4598388671875	-990.348876953125	902.6954345703125	-302.3321838378906	-845.9508056640625	887.1676635742188	-515.3828735351562	-955.1371459960938	430.6854248046875	-585.1082763671875	-908.2738037109375	579.5260009765625	-598.2631225585938	-1040.039184570312	35.53058242797852	-581.1256713867188	-966.887939453125	279.6814270019531	-583.2918090820312	-893.3013305664062	41.66525650024414	-397.364501953125	-969.286865234375	52.68296813964844	-418.6231384277344	-904.1671142578125	41.79597854614258	-512.6140747070312	-1113.14306640625	41.38639831542969	-570.8588256835938	-1105.076049804688	471.1099243164062	-309.0116577148438	-1094.401733398438	732.7398681640625	-269.5663452148438	-1172.585327148438	46.04990768432617	-332.333251953125	-1130.19580078125	326.3235473632812	-299.4645690917969	-963.0302124023438	47.52360153198242	-267.388671875	-1001.929443359375	55.8646354675293	-328.958251953125	-1068.01708984375	48.84991455078125	-244.8369598388672	-1205.86376953125	37.29423141479492	-406.7028503417969	
101	1	-1135.068603515625	974.2850952148438	-484.0596008300781	-1065.758422851562	971.4503784179688	-607.207763671875	-1091.2509765625	1063.929809570312	-527.3903198242188	-849.1089477539062	1248.524291992188	-416.0812683105469	-1107.873046875	1186.7919921875	-544.9349365234375	-1048.742797851562	1454.036010742188	-506.8983154296875	-876.9210205078125	1362.854370117188	-437.8488159179688	-1149.184204101562	1337.400634765625	-447.6827392578125	-1033.001586914062	1405.91357421875	-611.11279296875	-903.1946411132812	1420.01708984375	-632.5267333984375	-865.2438354492188	1303.186767578125	-725.3219604492188	-822.5751953125	1091.17333984375	-750.776123046875	-922.5215454101562	1068.810424804688	-729.8731689453125	-751.1825561523438	896.6089477539062	-672.6207275390625	-766.1293334960938	877.4339599609375	-743.0075073242188	-792.1394653320312	1005.762756347656	-749.4737548828125	-730.7758178710938	728.6635131835938	-667.330078125	-753.456298828125	796.9358520507812	-735.8178100585938	-725.2244262695312	809.022216796875	-671.1654052734375	-1053.689819335938	1422.28662109375	-330.2510986328125	-1103.737670898438	1363.185668945312	-268.29345703125	-1138.19091796875	1080.906982421875	-207.4543304443359	-1166.920166015625	1060.20703125	-265.6705017089844	-1021.105895996094	885.185791015625	-186.045654296875	-1105.3447265625	868.3031005859375	-166.0680999755859	-1137.7705078125	1023.129638671875	-193.9052124023438	-1018.635131835938	726.8062133789062	-165.4100189208984	-1010.849426269531	787.15283203125	-160.1017150878906	-1086.192138671875	783.5504150390625	-152.0791778564453	-1019.646179199219	1645.842041015625	-404.73095703125	-824.86669921875	1667.109130859375	-471.5106506347656	-891.4130859375	1669.374877929688	-358.5642395019531	-942.8824462890625	1646.7236328125	-565.5693359375	-891.9777221679688	850.7230834960938	-634.0662231445312	-1117.083618164062	870.1514282226562	-302.6268615722656	-990.70068359375	902.691162109375	-302.4915161132812	-846.4527587890625	887.1170043945312	-515.625	-955.32421875	430.6715698242188	-585.217529296875	-908.5537719726562	579.5189819335938	-598.5009765625	-1040.062377929688	35.50354766845703	-581.1370239257812	-967.0238037109375	279.6585388183594	-583.355712890625	-893.3404541015625	41.7133674621582	-397.3976135253906	-969.3101196289062	52.68041229248047	-418.6361694335938	-904.2173461914062	41.83511734008789	-512.5919189453125	-1113.181274414062	41.32203674316406	-570.8641357421875	-1105.644409179688	471.2019348144531	-309.1968078613281	-1094.874633789062	732.8031005859375	-269.6938171386719	-1172.64208984375	45.92169570922852	-332.2991638183594	-1130.611694335938	326.3812561035156	-299.5795288085938	-963.05908203125	47.53127288818359	-267.3901977539062	-1002.018127441406	55.91801452636719	-328.8807067871094	-1068.054321289062	48.81604766845703	-244.761962890625	-1205.901123046875	37.20188522338867	-406.6698608398438	
102	1.01	-1135.396728515625	974.3583984375	-484.2147521972656	-1066.08740234375	971.5189208984375	-607.4010620117188	-1091.515014648438	1064.0029296875	-527.5512084960938	-849.3517456054688	1248.446899414062	-416.0039672851562	-1108.00244140625	1186.895874023438	-545.0873413085938	-1048.712890625	1454.103271484375	-507.0349426269531	-877.1328125	1362.77001953125	-437.6725158691406	-1149.3017578125	1337.538452148438	-447.9434509277344	-1032.896850585938	1405.972290039062	-611.233154296875	-902.993896484375	1419.971069335938	-632.4701538085938	-864.9938354492188	1303.082153320312	-725.1498413085938	-822.4036254882812	1091.047241210938	-750.48486328125	-922.2747192382812	1068.6162109375	-729.6967163085938	-751.3258056640625	896.39501953125	-672.2343139648438	-766.2696533203125	877.2275390625	-742.7001342773438	-792.1419067382812	1005.598449707031	-749.1566162109375	-731.2001953125	728.434814453125	-666.93408203125	-753.6878051757812	796.7447509765625	-735.4951171875	-725.5364379882812	808.6886596679688	-670.7527465820312	-1053.88330078125	1422.379516601562	-330.3901672363281	-1104.093627929688	1363.333251953125	-268.5130004882812	-1138.815063476562	1081.108642578125	-207.5908050537109	-1167.379638671875	1060.276489257812	-265.8590698242188	-1021.20947265625	885.7951049804688	-185.7559204101562	-1105.418701171875	868.6494750976562	-165.8657684326172	-1138.235595703125	1023.322570800781	-193.9902191162109	-1018.190307617188	727.48193359375	-164.8214111328125	-1010.593078613281	787.8543090820312	-159.6023101806641	-1085.950439453125	783.9990844726562	-151.7112579345703	-1019.721252441406	1645.801147460938	-404.8308715820312	-825.0303344726562	1667.211669921875	-471.4345397949219	-891.6484985351562	1669.478149414062	-358.5766906738281	-942.865234375	1646.712890625	-565.6024169921875	-892.3042602539062	850.7318115234375	-634.164794921875	-1117.435180664062	870.1942749023438	-302.7835693359375	-991.0964965820312	902.6715698242188	-302.6458129882812	-846.9578857421875	887.0714111328125	-515.8632202148438	-955.53173828125	430.6534729003906	-585.3218383789062	-908.8255615234375	579.5176391601562	-598.6986694335938	-1040.09326171875	35.48359298706055	-581.1465454101562	-967.1524658203125	279.6470031738281	-583.4063720703125	-893.3803100585938	41.76180648803711	-397.43212890625	-969.3323974609375	52.67712783813477	-418.6470336914062	-904.2692260742188	41.87613296508789	-512.5734252929688	-1113.221313476562	41.26087951660156	-570.8609008789062	-1106.17236328125	471.2702331542969	-309.3709411621094	-1095.33154296875	732.861328125	-269.7965698242188	-1172.696533203125	45.7939453125	-332.2745056152344	-1131.001342773438	326.41455078125	-299.6945495605469	-963.0895385742188	47.53760528564453	-267.3929748535156	-1002.097900390625	55.95930099487305	-328.8143310546875	-1068.09130859375	48.78503799438477	-244.6900634765625	-1205.936645507812	37.10411834716797	-406.6441955566406	
